<svg width="20" height="19" viewBox="0 0 20 19" fill="none" xmlns="http://www.w3.org/2000/svg">
<path d="M0.706288 18.4841H19.2937C19.6899 18.4841 20 18.174 20 17.7778V2.0155C20 1.61929 19.6899 1.30922 19.2937 1.30922H15.7967V0.706288C15.7967 0.310077 15.4866 0 15.0904 0C14.6942 0 14.3842 0.310077 14.3842 0.706288V1.30922H5.73643V0.706288C5.73643 0.310077 5.42636 0 5.03015 0C4.63394 0 4.32386 0.310077 4.32386 0.706288V1.30922H0.706288C0.310078 1.30922 0 1.61929 0 2.0155V17.795C0 18.174 0.327304 18.4841 0.706288 18.4841ZM1.41258 2.72179H4.32386V3.10078C4.32386 3.49699 4.63394 3.80706 5.03015 3.80706C5.42636 3.80706 5.73643 3.49699 5.73643 3.10078V2.72179H14.3842V3.10078C14.3842 3.49699 14.6942 3.80706 15.0904 3.80706C15.4866 3.80706 15.7967 3.49699 15.7967 3.10078V2.72179H18.6047V4.5478H1.41258V2.72179ZM1.41258 5.96038H18.5874V17.0887H1.41258V5.96038Z" fill="#486591"/>
<path d="M15.0904 9.19897H4.92675C4.53054 9.19897 4.22046 9.50905 4.22046 9.90526C4.22046 10.3015 4.53054 10.6116 4.92675 10.6116H15.0904C15.4866 10.6116 15.7967 10.3015 15.7967 9.90526C15.7967 9.50905 15.4866 9.19897 15.0904 9.19897Z" fill="#486591"/>
<path d="M10.0086 12.6098H4.92675C4.53054 12.6098 4.22046 12.9199 4.22046 13.3161C4.22046 13.7123 4.53054 14.0224 4.92675 14.0224H10.0086C10.4048 14.0224 10.7149 13.7123 10.7149 13.3161C10.7149 12.9199 10.4048 12.6098 10.0086 12.6098Z" fill="#486591"/>
</svg>
