<svg width="70" height="10" viewBox="0 0 70 10" fill="none" xmlns="http://www.w3.org/2000/svg">
<g id="Group 36">
<g id="star">
<g id="Group">
<path id="Vector" d="M54.9863 3.60821C54.9534 3.50764 54.8672 3.4358 54.7626 3.41938L51.6428 2.97605L50.239 0.153934C50.1918 0.0595211 50.0953 0 49.9906 0C49.8859 0 49.7895 0.0595211 49.7423 0.155986L48.3569 2.98632L45.2371 3.45017C45.1325 3.46659 45.0463 3.53842 45.0134 3.63899C44.9806 3.73956 45.0093 3.8504 45.0853 3.92223L47.3491 6.1163L46.8257 9.22371C46.8073 9.32839 46.8504 9.43306 46.9366 9.49464C46.9838 9.52953 47.0412 9.548 47.0987 9.548C47.1439 9.548 47.187 9.53774 47.228 9.51516L50.0132 8.03945L52.8066 9.49874C52.8476 9.51927 52.8907 9.52953 52.9338 9.52953C53.0857 9.52953 53.2109 9.40433 53.2109 9.25245C53.2109 9.22987 53.2089 9.20935 53.2027 9.18882L52.6629 6.09988L54.9124 3.8935C54.9924 3.81961 55.0191 3.70878 54.9863 3.60821ZM52.1744 5.80638C52.1087 5.87001 52.08 5.96237 52.0964 6.05268L52.5664 8.74754L50.1404 7.48118C50.0604 7.43808 49.9639 7.44013 49.8818 7.48118L47.464 8.76191L47.9176 6.06294C47.932 5.97263 47.9033 5.88232 47.8376 5.8187L45.8755 3.91402L48.5826 3.51174C48.6729 3.49738 48.7509 3.44196 48.7899 3.35986L49.9927 0.903078L51.2118 3.3537C51.2529 3.4358 51.3309 3.49122 51.4212 3.50559L54.1304 3.89145L52.1744 5.80638Z" fill="#DF7021"/>
</g>
</g>
<g id="star_2">
<g id="Group_2">
<path id="Vector_2" d="M69.9863 3.60821C69.9534 3.50764 69.8672 3.4358 69.7626 3.41938L66.6428 2.97605L65.239 0.153934C65.1918 0.0595211 65.0953 0 64.9906 0C64.8859 0 64.7895 0.0595211 64.7423 0.155986L63.3569 2.98632L60.2371 3.45017C60.1325 3.46659 60.0463 3.53842 60.0134 3.63899C59.9806 3.73956 60.0093 3.8504 60.0853 3.92223L62.3491 6.1163L61.8257 9.22371C61.8073 9.32839 61.8504 9.43306 61.9366 9.49464C61.9838 9.52953 62.0412 9.548 62.0987 9.548C62.1439 9.548 62.187 9.53774 62.228 9.51516L65.0132 8.03945L67.8066 9.49874C67.8476 9.51927 67.8907 9.52953 67.9338 9.52953C68.0857 9.52953 68.2109 9.40433 68.2109 9.25245C68.2109 9.22987 68.2089 9.20935 68.2027 9.18882L67.6629 6.09988L69.9124 3.8935C69.9924 3.81961 70.0191 3.70878 69.9863 3.60821ZM67.1744 5.80638C67.1087 5.87001 67.08 5.96237 67.0964 6.05268L67.5664 8.74754L65.1404 7.48118C65.0604 7.43808 64.9639 7.44013 64.8818 7.48118L62.464 8.76191L62.9176 6.06294C62.932 5.97263 62.9033 5.88232 62.8376 5.8187L60.8755 3.91402L63.5826 3.51174C63.6729 3.49738 63.7509 3.44196 63.7899 3.35986L64.9927 0.903078L66.2118 3.3537C66.2529 3.4358 66.3309 3.49122 66.4212 3.50559L69.1304 3.89145L67.1744 5.80638Z" fill="#DF7021"/>
</g>
</g>
<g id="star_3">
<g id="Group_3">
<path id="Vector_3" d="M39.9863 3.60821C39.9534 3.50764 39.8672 3.4358 39.7626 3.41938L36.6428 2.97605L35.239 0.153934C35.1918 0.0595211 35.0953 0 34.9906 0C34.8859 0 34.7895 0.0595211 34.7423 0.155986L33.3569 2.98632L30.2371 3.45017C30.1325 3.46659 30.0463 3.53842 30.0134 3.63899C29.9806 3.73956 30.0093 3.8504 30.0853 3.92223L32.3491 6.1163L31.8257 9.22371C31.8073 9.32839 31.8504 9.43306 31.9366 9.49464C31.9838 9.52953 32.0412 9.548 32.0987 9.548C32.1439 9.548 32.187 9.53774 32.228 9.51516L35.0132 8.03945L37.8066 9.49874C37.8476 9.51927 37.8907 9.52953 37.9338 9.52953C38.0857 9.52953 38.2109 9.40433 38.2109 9.25245C38.2109 9.22987 38.2089 9.20935 38.2027 9.18882L37.6629 6.09988L39.9124 3.8935C39.9924 3.81961 40.0191 3.70878 39.9863 3.60821ZM37.1744 5.80638C37.1087 5.87001 37.08 5.96237 37.0964 6.05268L37.5664 8.74754L35.1404 7.48118C35.0604 7.43808 34.9639 7.44013 34.8818 7.48118L32.464 8.76191L32.9176 6.06294C32.932 5.97263 32.9033 5.88232 32.8376 5.8187L30.8755 3.91402L33.5826 3.51174C33.6729 3.49738 33.7509 3.44196 33.7899 3.35986L34.9927 0.903078L36.2118 3.3537C36.2529 3.4358 36.3309 3.49122 36.4212 3.50559L39.1304 3.89145L37.1744 5.80638Z" fill="#DF7021"/>
</g>
</g>
<g id="star_4">
<g id="Group_4">
<path id="Vector_4" d="M24.9863 3.60821C24.9534 3.50764 24.8672 3.4358 24.7626 3.41938L21.6428 2.97605L20.239 0.153934C20.1918 0.0595211 20.0953 0 19.9906 0C19.8859 0 19.7895 0.0595211 19.7423 0.155986L18.3569 2.98632L15.2371 3.45017C15.1325 3.46659 15.0463 3.53842 15.0134 3.63899C14.9806 3.73956 15.0093 3.8504 15.0853 3.92223L17.3491 6.1163L16.8257 9.22371C16.8073 9.32839 16.8504 9.43306 16.9366 9.49464C16.9838 9.52953 17.0412 9.548 17.0987 9.548C17.1439 9.548 17.187 9.53774 17.228 9.51516L20.0132 8.03945L22.8066 9.49874C22.8476 9.51927 22.8907 9.52953 22.9338 9.52953C23.0857 9.52953 23.2109 9.40433 23.2109 9.25245C23.2109 9.22987 23.2089 9.20935 23.2027 9.18882L22.6629 6.09988L24.9124 3.8935C24.9924 3.81961 25.0191 3.70878 24.9863 3.60821ZM22.1744 5.80638C22.1087 5.87001 22.08 5.96237 22.0964 6.05268L22.5664 8.74754L20.1404 7.48118C20.0604 7.43808 19.9639 7.44013 19.8818 7.48118L17.464 8.76191L17.9176 6.06294C17.932 5.97263 17.9033 5.88232 17.8376 5.8187L15.8755 3.91402L18.5826 3.51174C18.6729 3.49738 18.7509 3.44196 18.7899 3.35986L19.9927 0.903078L21.2118 3.3537C21.2529 3.4358 21.3309 3.49122 21.4212 3.50559L24.1304 3.89145L22.1744 5.80638Z" fill="#DF7021"/>
</g>
</g>
<g id="star_5">
<g id="Group_5">
<path id="Vector_5" d="M9.98628 3.60821C9.95344 3.50764 9.86724 3.4358 9.76256 3.41938L6.64284 2.97605L5.23896 0.153934C5.19175 0.0595211 5.09529 0 4.99061 0C4.88594 0 4.78947 0.0595211 4.74227 0.155986L3.35686 2.98632L0.237139 3.45017C0.132464 3.46659 0.0462609 3.53842 0.0134217 3.63899C-0.0194175 3.73956 0.00931679 3.8504 0.0852575 3.92223L2.34911 6.1163L1.82574 9.22371C1.80726 9.32839 1.85036 9.43306 1.93657 9.49464C1.98377 9.52953 2.04124 9.548 2.09871 9.548C2.14387 9.548 2.18697 9.53774 2.22802 9.51516L5.01319 8.03945L7.80658 9.49874C7.84763 9.51927 7.89073 9.52953 7.93383 9.52953C8.08571 9.52953 8.21091 9.40433 8.21091 9.25245C8.21091 9.22987 8.20886 9.20935 8.2027 9.18882L7.66291 6.09988L9.91239 3.8935C9.99244 3.81961 10.0191 3.70878 9.98628 3.60821ZM7.17442 5.80638C7.10874 5.87001 7.08001 5.96237 7.09643 6.05268L7.56644 8.74754L5.14044 7.48118C5.0604 7.43808 4.96393 7.44013 4.88183 7.48118L2.46405 8.76191L2.91764 6.06294C2.93201 5.97263 2.90327 5.88232 2.83759 5.8187L0.875451 3.91402L3.58263 3.51174C3.67294 3.49738 3.75093 3.44196 3.78993 3.35986L4.99267 0.903078L6.21182 3.3537C6.25287 3.4358 6.33086 3.49122 6.42117 3.50559L9.13041 3.89145L7.17442 5.80638Z" fill="#DF7021"/>
</g>
</g>
</g>
</svg>
