<svg width="76" height="567" viewBox="0 0 76 567" fill="none" xmlns="http://www.w3.org/2000/svg">
<path d="M36.6376 23.4031V8.04308L38.3176 9.72307H33.2776V6.60308H40.5256V23.4031H36.6376ZM17.8219 50.6751V38.7711H12.0619L11.9899 41.2191C11.9419 42.2591 11.8699 43.2431 11.7739 44.1711C11.6939 45.0991 11.5659 45.9471 11.3899 46.7151C11.2139 47.4671 10.9819 48.1071 10.6939 48.6351C10.4219 49.1631 10.0779 49.5391 9.66188 49.7631L5.50988 49.2351C6.08588 49.2511 6.55788 49.0511 6.92588 48.6351C7.30988 48.2191 7.61388 47.6351 7.83788 46.8831C8.06188 46.1151 8.22188 45.2191 8.31788 44.1951C8.42988 43.1711 8.50988 42.0591 8.55788 40.8591L8.74988 35.6031H21.6619V50.6751H17.8219ZM4.95788 55.8831L4.98188 49.2351H24.0139V55.8831H20.4139V52.4031H8.55788V55.8831H4.95788ZM32.5146 52.5951C31.0426 52.5951 29.7466 52.3071 28.6266 51.7311C27.5226 51.1551 26.6666 50.3711 26.0586 49.3791C25.4506 48.3711 25.1466 47.2271 25.1466 45.9471C25.1466 44.6511 25.4426 43.5071 26.0346 42.5151C26.6426 41.5071 27.4666 40.7231 28.5066 40.1631C29.5466 39.5871 30.7226 39.2991 32.0346 39.2991C33.2986 39.2991 34.4346 39.5711 35.4426 40.1151C36.4666 40.6431 37.2746 41.4111 37.8666 42.4191C38.4586 43.4111 38.7546 44.6031 38.7546 45.9951C38.7546 46.1391 38.7466 46.3071 38.7306 46.4991C38.7146 46.6751 38.6986 46.8431 38.6826 47.0031H28.1946V44.8191H36.7146L35.2746 45.4671C35.2746 44.7951 35.1386 44.2111 34.8666 43.7151C34.5946 43.2191 34.2186 42.8351 33.7386 42.5631C33.2586 42.2751 32.6986 42.1311 32.0586 42.1311C31.4186 42.1311 30.8506 42.2751 30.3546 42.5631C29.8746 42.8351 29.4986 43.2271 29.2266 43.7391C28.9546 44.2351 28.8186 44.8271 28.8186 45.5151V46.0911C28.8186 46.7951 28.9706 47.4191 29.2746 47.9631C29.5946 48.4911 30.0346 48.8991 30.5946 49.1871C31.1706 49.4591 31.8426 49.5951 32.6106 49.5951C33.2986 49.5951 33.8986 49.4911 34.4106 49.2831C34.9386 49.0751 35.4186 48.7631 35.8506 48.3471L37.8426 50.5071C37.2506 51.1791 36.5066 51.6991 35.6106 52.0671C34.7146 52.4191 33.6826 52.5951 32.5146 52.5951ZM41.6244 52.4031V39.4911H45.3444V44.5311H50.9604V39.4911H54.7044V52.4031H50.9604V47.5791H45.3444V52.4031H41.6244ZM65.2725 43.6191C66.9685 43.6351 68.2565 44.0191 69.1365 44.7711C70.0325 45.5071 70.4805 46.5551 70.4805 47.9151C70.4805 49.3391 69.9765 50.4511 68.9685 51.2511C67.9605 52.0351 66.5605 52.4271 64.7685 52.4271L58.2885 52.4031V39.4911H62.0085V43.6191H65.2725ZM64.4325 49.7631C65.1525 49.7791 65.7045 49.6271 66.0885 49.3071C66.4725 48.9871 66.6645 48.5071 66.6645 47.8671C66.6645 47.2271 66.4725 46.7711 66.0885 46.4991C65.7045 46.2111 65.1525 46.0591 64.4325 46.0431L62.0085 46.0191V49.7631H64.4325Z" fill="#999999"/>
<path d="M31.5227 152.627V150.107L38.0027 143.987C38.5147 143.523 38.8907 143.107 39.1307 142.739C39.3707 142.371 39.5307 142.035 39.6107 141.731C39.7067 141.427 39.7547 141.147 39.7547 140.891C39.7547 140.219 39.5227 139.707 39.0587 139.355C38.6107 138.987 37.9467 138.803 37.0667 138.803C36.3627 138.803 35.7067 138.939 35.0987 139.211C34.5067 139.483 34.0027 139.907 33.5867 140.483L30.7547 138.659C31.3947 137.699 32.2907 136.939 33.4427 136.379C34.5947 135.819 35.9227 135.539 37.4267 135.539C38.6747 135.539 39.7627 135.747 40.6907 136.163C41.6347 136.563 42.3627 137.131 42.8747 137.867C43.4027 138.603 43.6667 139.483 43.6667 140.507C43.6667 141.051 43.5947 141.595 43.4507 142.139C43.3227 142.667 43.0507 143.227 42.6347 143.819C42.2347 144.411 41.6427 145.075 40.8587 145.811L35.4827 150.875L34.7387 149.459H44.2187V152.627H31.5227ZM17.8219 179.899V167.995H12.0619L11.9899 170.443C11.9419 171.483 11.8699 172.467 11.7739 173.395C11.6939 174.323 11.5659 175.171 11.3899 175.939C11.2139 176.691 10.9819 177.331 10.6939 177.859C10.4219 178.387 10.0779 178.763 9.66188 178.987L5.50988 178.459C6.08588 178.475 6.55788 178.275 6.92588 177.859C7.30988 177.443 7.61388 176.859 7.83788 176.107C8.06188 175.339 8.22188 174.443 8.31788 173.419C8.42988 172.395 8.50988 171.283 8.55788 170.083L8.74988 164.827H21.6619V179.899H17.8219ZM4.95788 185.107L4.98188 178.459H24.0139V185.107H20.4139V181.627H8.55788V185.107H4.95788ZM32.5146 181.819C31.0426 181.819 29.7466 181.531 28.6266 180.955C27.5226 180.379 26.6666 179.595 26.0586 178.603C25.4506 177.595 25.1466 176.451 25.1466 175.171C25.1466 173.875 25.4426 172.731 26.0346 171.739C26.6426 170.731 27.4666 169.947 28.5066 169.387C29.5466 168.811 30.7226 168.523 32.0346 168.523C33.2986 168.523 34.4346 168.795 35.4426 169.339C36.4666 169.867 37.2746 170.635 37.8666 171.643C38.4586 172.635 38.7546 173.827 38.7546 175.219C38.7546 175.363 38.7466 175.531 38.7306 175.723C38.7146 175.899 38.6986 176.067 38.6826 176.227H28.1946V174.043H36.7146L35.2746 174.691C35.2746 174.019 35.1386 173.435 34.8666 172.939C34.5946 172.443 34.2186 172.059 33.7386 171.787C33.2586 171.499 32.6986 171.355 32.0586 171.355C31.4186 171.355 30.8506 171.499 30.3546 171.787C29.8746 172.059 29.4986 172.451 29.2266 172.963C28.9546 173.459 28.8186 174.051 28.8186 174.739V175.315C28.8186 176.019 28.9706 176.643 29.2746 177.187C29.5946 177.715 30.0346 178.123 30.5946 178.411C31.1706 178.683 31.8426 178.819 32.6106 178.819C33.2986 178.819 33.8986 178.715 34.4106 178.507C34.9386 178.299 35.4186 177.987 35.8506 177.571L37.8426 179.731C37.2506 180.403 36.5066 180.923 35.6106 181.291C34.7146 181.643 33.6826 181.819 32.5146 181.819ZM41.6244 181.627V168.715H45.3444V173.755H50.9604V168.715H54.7044V181.627H50.9604V176.803H45.3444V181.627H41.6244ZM65.2725 172.843C66.9685 172.859 68.2565 173.243 69.1365 173.995C70.0325 174.731 70.4805 175.779 70.4805 177.139C70.4805 178.563 69.9765 179.675 68.9685 180.475C67.9605 181.259 66.5605 181.651 64.7685 181.651L58.2885 181.627V168.715H62.0085V172.843H65.2725ZM64.4325 178.987C65.1525 179.003 65.7045 178.851 66.0885 178.531C66.4725 178.211 66.6645 177.731 66.6645 177.091C66.6645 176.451 66.4725 175.995 66.0885 175.723C65.7045 175.435 65.1525 175.283 64.4325 175.267L62.0085 175.243V178.987H64.4325Z" fill="#999999"/>
<path d="M37.0913 279.157C35.9233 279.157 34.7633 279.005 33.6113 278.701C32.4593 278.381 31.4833 277.933 30.6833 277.357L32.1953 274.381C32.8353 274.845 33.5793 275.213 34.4273 275.485C35.2753 275.757 36.1313 275.893 36.9953 275.893C37.9713 275.893 38.7393 275.701 39.2993 275.317C39.8593 274.933 40.1393 274.405 40.1393 273.733C40.1393 273.093 39.8913 272.589 39.3953 272.221C38.8993 271.853 38.0993 271.669 36.9953 271.669H35.2193V269.101L39.8993 263.797L40.3313 265.189H31.5233V262.069H43.2833V264.589L38.6273 269.893L36.6593 268.765H37.7873C39.8513 268.765 41.4113 269.229 42.4673 270.157C43.5233 271.085 44.0513 272.277 44.0513 273.733C44.0513 274.677 43.8033 275.565 43.3073 276.397C42.8113 277.213 42.0513 277.877 41.0273 278.389C40.0033 278.901 38.6913 279.157 37.0913 279.157ZM17.8219 306.141V294.237H12.0619L11.9899 296.685C11.9419 297.725 11.8699 298.709 11.7739 299.637C11.6939 300.565 11.5659 301.413 11.3899 302.181C11.2139 302.933 10.9819 303.573 10.6939 304.101C10.4219 304.629 10.0779 305.005 9.66188 305.229L5.50988 304.701C6.08588 304.717 6.55788 304.517 6.92588 304.101C7.30988 303.685 7.61388 303.101 7.83788 302.349C8.06188 301.581 8.22188 300.685 8.31788 299.661C8.42988 298.637 8.50988 297.525 8.55788 296.325L8.74988 291.069H21.6619V306.141H17.8219ZM4.95788 311.349L4.98188 304.701H24.0139V311.349H20.4139V307.869H8.55788V311.349H4.95788ZM32.5146 308.061C31.0426 308.061 29.7466 307.773 28.6266 307.197C27.5226 306.621 26.6666 305.837 26.0586 304.845C25.4506 303.837 25.1466 302.693 25.1466 301.413C25.1466 300.117 25.4426 298.973 26.0346 297.981C26.6426 296.973 27.4666 296.189 28.5066 295.629C29.5466 295.053 30.7226 294.765 32.0346 294.765C33.2986 294.765 34.4346 295.037 35.4426 295.581C36.4666 296.109 37.2746 296.877 37.8666 297.885C38.4586 298.877 38.7546 300.069 38.7546 301.461C38.7546 301.605 38.7466 301.773 38.7306 301.965C38.7146 302.141 38.6986 302.309 38.6826 302.469H28.1946V300.285H36.7146L35.2746 300.933C35.2746 300.261 35.1386 299.677 34.8666 299.181C34.5946 298.685 34.2186 298.301 33.7386 298.029C33.2586 297.741 32.6986 297.597 32.0586 297.597C31.4186 297.597 30.8506 297.741 30.3546 298.029C29.8746 298.301 29.4986 298.693 29.2266 299.205C28.9546 299.701 28.8186 300.293 28.8186 300.981V301.557C28.8186 302.261 28.9706 302.885 29.2746 303.429C29.5946 303.957 30.0346 304.365 30.5946 304.653C31.1706 304.925 31.8426 305.061 32.6106 305.061C33.2986 305.061 33.8986 304.957 34.4106 304.749C34.9386 304.541 35.4186 304.229 35.8506 303.813L37.8426 305.973C37.2506 306.645 36.5066 307.165 35.6106 307.533C34.7146 307.885 33.6826 308.061 32.5146 308.061ZM41.6244 307.869V294.957H45.3444V299.997H50.9604V294.957H54.7044V307.869H50.9604V303.045H45.3444V307.869H41.6244ZM65.2725 299.085C66.9685 299.101 68.2565 299.485 69.1365 300.237C70.0325 300.973 70.4805 302.021 70.4805 303.381C70.4805 304.805 69.9765 305.917 68.9685 306.717C67.9605 307.501 66.5605 307.893 64.7685 307.893L58.2885 307.869V294.957H62.0085V299.085H65.2725ZM64.4325 305.229C65.1525 305.245 65.7045 305.093 66.0885 304.773C66.4725 304.453 66.6645 303.973 66.6645 303.333C66.6645 302.693 66.4725 302.237 66.0885 301.965C65.7045 301.677 65.1525 301.525 64.4325 301.509L62.0085 301.485V305.229H64.4325Z" fill="#999999"/>
<path d="M30.2794 401.582V398.966L38.1994 388.31H42.2794L34.5274 398.966L32.6314 398.414H45.8554V401.582H30.2794ZM39.3274 405.11V401.582L39.4474 398.414V395.27H43.1194V405.11H39.3274ZM17.8219 432.382V420.478H12.0619L11.9899 422.926C11.9419 423.966 11.8699 424.95 11.7739 425.878C11.6939 426.806 11.5659 427.654 11.3899 428.422C11.2139 429.174 10.9819 429.814 10.6939 430.342C10.4219 430.87 10.0779 431.246 9.66188 431.47L5.50988 430.942C6.08588 430.958 6.55788 430.758 6.92588 430.342C7.30988 429.926 7.61388 429.342 7.83788 428.59C8.06188 427.822 8.22188 426.926 8.31788 425.902C8.42988 424.878 8.50988 423.766 8.55788 422.566L8.74988 417.31H21.6619V432.382H17.8219ZM4.95788 437.59L4.98188 430.942H24.0139V437.59H20.4139V434.11H8.55788V437.59H4.95788ZM32.5146 434.302C31.0426 434.302 29.7466 434.014 28.6266 433.438C27.5226 432.862 26.6666 432.078 26.0586 431.086C25.4506 430.078 25.1466 428.934 25.1466 427.654C25.1466 426.358 25.4426 425.214 26.0346 424.222C26.6426 423.214 27.4666 422.43 28.5066 421.87C29.5466 421.294 30.7226 421.006 32.0346 421.006C33.2986 421.006 34.4346 421.278 35.4426 421.822C36.4666 422.35 37.2746 423.118 37.8666 424.126C38.4586 425.118 38.7546 426.31 38.7546 427.702C38.7546 427.846 38.7466 428.014 38.7306 428.206C38.7146 428.382 38.6986 428.55 38.6826 428.71H28.1946V426.526H36.7146L35.2746 427.174C35.2746 426.502 35.1386 425.918 34.8666 425.422C34.5946 424.926 34.2186 424.542 33.7386 424.27C33.2586 423.982 32.6986 423.838 32.0586 423.838C31.4186 423.838 30.8506 423.982 30.3546 424.27C29.8746 424.542 29.4986 424.934 29.2266 425.446C28.9546 425.942 28.8186 426.534 28.8186 427.222V427.798C28.8186 428.502 28.9706 429.126 29.2746 429.67C29.5946 430.198 30.0346 430.606 30.5946 430.894C31.1706 431.166 31.8426 431.302 32.6106 431.302C33.2986 431.302 33.8986 431.198 34.4106 430.99C34.9386 430.782 35.4186 430.47 35.8506 430.054L37.8426 432.214C37.2506 432.886 36.5066 433.406 35.6106 433.774C34.7146 434.126 33.6826 434.302 32.5146 434.302ZM41.6244 434.11V421.198H45.3444V426.238H50.9604V421.198H54.7044V434.11H50.9604V429.286H45.3444V434.11H41.6244ZM65.2725 425.326C66.9685 425.342 68.2565 425.726 69.1365 426.478C70.0325 427.214 70.4805 428.262 70.4805 429.622C70.4805 431.046 69.9765 432.158 68.9685 432.958C67.9605 433.742 66.5605 434.134 64.7685 434.134L58.2885 434.11V421.198H62.0085V425.326H65.2725ZM64.4325 431.47C65.1525 431.486 65.7045 431.334 66.0885 431.014C66.4725 430.694 66.6645 430.214 66.6645 429.574C66.6645 428.934 66.4725 428.478 66.0885 428.206C65.7045 427.918 65.1525 427.766 64.4325 427.75L62.0085 427.726V431.47H64.4325Z" fill="#999999"/>
<path d="M37.3201 531.64C36.1521 531.64 34.9921 531.488 33.8401 531.184C32.7041 530.864 31.7281 530.416 30.9121 529.84L32.4481 526.864C33.0881 527.328 33.8241 527.696 34.6561 527.968C35.5041 528.24 36.3601 528.376 37.2241 528.376C38.2001 528.376 38.9681 528.184 39.5281 527.8C40.0881 527.416 40.3681 526.88 40.3681 526.192C40.3681 525.76 40.2561 525.376 40.0321 525.04C39.8081 524.704 39.4081 524.448 38.8321 524.272C38.2721 524.096 37.4801 524.008 36.4561 524.008H32.1601L33.0241 514.552H43.2721V517.672H34.4161L36.4321 515.896L35.8321 522.64L33.8161 520.864H37.3681C39.0321 520.864 40.3681 521.096 41.3761 521.56C42.4001 522.008 43.1441 522.624 43.6081 523.408C44.0721 524.192 44.3041 525.08 44.3041 526.072C44.3041 527.064 44.0561 527.984 43.5601 528.832C43.0641 529.664 42.2961 530.344 41.2561 530.872C40.2321 531.384 38.9201 531.64 37.3201 531.64ZM17.8219 558.624V546.72H12.0619L11.9899 549.168C11.9419 550.208 11.8699 551.192 11.7739 552.12C11.6939 553.048 11.5659 553.896 11.3899 554.664C11.2139 555.416 10.9819 556.056 10.6939 556.584C10.4219 557.112 10.0779 557.488 9.66188 557.712L5.50988 557.184C6.08588 557.2 6.55788 557 6.92588 556.584C7.30988 556.168 7.61388 555.584 7.83788 554.832C8.06188 554.064 8.22188 553.168 8.31788 552.144C8.42988 551.12 8.50988 550.008 8.55788 548.808L8.74988 543.552H21.6619V558.624H17.8219ZM4.95788 563.832L4.98188 557.184H24.0139V563.832H20.4139V560.352H8.55788V563.832H4.95788ZM32.5146 560.544C31.0426 560.544 29.7466 560.256 28.6266 559.68C27.5226 559.104 26.6666 558.32 26.0586 557.328C25.4506 556.32 25.1466 555.176 25.1466 553.896C25.1466 552.6 25.4426 551.456 26.0346 550.464C26.6426 549.456 27.4666 548.672 28.5066 548.112C29.5466 547.536 30.7226 547.248 32.0346 547.248C33.2986 547.248 34.4346 547.52 35.4426 548.064C36.4666 548.592 37.2746 549.36 37.8666 550.368C38.4586 551.36 38.7546 552.552 38.7546 553.944C38.7546 554.088 38.7466 554.256 38.7306 554.448C38.7146 554.624 38.6986 554.792 38.6826 554.952H28.1946V552.768H36.7146L35.2746 553.416C35.2746 552.744 35.1386 552.16 34.8666 551.664C34.5946 551.168 34.2186 550.784 33.7386 550.512C33.2586 550.224 32.6986 550.08 32.0586 550.08C31.4186 550.08 30.8506 550.224 30.3546 550.512C29.8746 550.784 29.4986 551.176 29.2266 551.688C28.9546 552.184 28.8186 552.776 28.8186 553.464V554.04C28.8186 554.744 28.9706 555.368 29.2746 555.912C29.5946 556.44 30.0346 556.848 30.5946 557.136C31.1706 557.408 31.8426 557.544 32.6106 557.544C33.2986 557.544 33.8986 557.44 34.4106 557.232C34.9386 557.024 35.4186 556.712 35.8506 556.296L37.8426 558.456C37.2506 559.128 36.5066 559.648 35.6106 560.016C34.7146 560.368 33.6826 560.544 32.5146 560.544ZM41.6244 560.352V547.44H45.3444V552.48H50.9604V547.44H54.7044V560.352H50.9604V555.528H45.3444V560.352H41.6244ZM65.2725 551.568C66.9685 551.584 68.2565 551.968 69.1365 552.72C70.0325 553.456 70.4805 554.504 70.4805 555.864C70.4805 557.288 69.9765 558.4 68.9685 559.2C67.9605 559.984 66.5605 560.376 64.7685 560.376L58.2885 560.352V547.44H62.0085V551.568H65.2725ZM64.4325 557.712C65.1525 557.728 65.7045 557.576 66.0885 557.256C66.4725 556.936 66.6645 556.456 66.6645 555.816C66.6645 555.176 66.4725 554.72 66.0885 554.448C65.7045 554.16 65.1525 554.008 64.4325 553.992L62.0085 553.968V557.712H64.4325Z" fill="#999999"/>
<path fill-rule="evenodd" clip-rule="evenodd" d="M37.2529 77.9374H35.0294V79.9254H37.2529V77.9374ZM37.2528 81.9135H35.0293V83.9016H37.2528V81.9135ZM35.0293 85.8897H37.2528V87.8778H35.0293V85.8897ZM37.2528 89.8658H35.0293V91.8539H37.2528V89.8658ZM35.0293 93.8419H37.2528V95.83H35.0293V93.8419ZM37.2528 97.818H35.0293V99.8061H37.2528V97.818ZM35.0293 101.794H37.2528V103.782H35.0293V101.794ZM37.2528 105.77H35.0293V107.758H37.2528V105.77Z" fill="#C4C4C4"/>
<path fill-rule="evenodd" clip-rule="evenodd" d="M38.3646 205.173H36.1411V207.161H38.3646V205.173ZM38.3647 209.149H36.1412V211.137H38.3647V209.149ZM36.1412 213.125H38.3647V215.114H36.1412V213.125ZM38.3647 217.102H36.1412V219.09H38.3647V217.102ZM36.1412 221.078H38.3647V223.066H36.1412V221.078ZM38.3647 225.054H36.1412V227.042H38.3647V225.054ZM36.1412 229.03H38.3647V231.018H36.1412V229.03ZM38.3647 233.006H36.1412V234.994H38.3647V233.006Z" fill="#C4C4C4"/>
<path fill-rule="evenodd" clip-rule="evenodd" d="M38.3646 331.415H36.1411V333.403H38.3646V331.415ZM38.3647 335.391H36.1412V337.379H38.3647V335.391ZM36.1412 339.367H38.3647V341.355H36.1412V339.367ZM38.3647 343.343H36.1412V345.331H38.3647V343.343ZM36.1412 347.319H38.3647V349.307H36.1412V347.319ZM38.3647 351.296H36.1412V353.284H38.3647V351.296ZM36.1412 355.272H38.3647V357.26H36.1412V355.272ZM38.3647 359.248H36.1412V361.236H38.3647V359.248Z" fill="#C4C4C4"/>
<path fill-rule="evenodd" clip-rule="evenodd" d="M38.3646 457.657H36.1411V459.645H38.3646V457.657ZM38.3647 461.633H36.1412V463.621H38.3647V461.633ZM36.1412 465.609H38.3647V467.597H36.1412V465.609ZM38.3647 469.585H36.1412V471.573H38.3647V469.585ZM36.1412 473.561H38.3647V475.549H36.1412V473.561ZM38.3647 477.538H36.1412V479.526H38.3647V477.538ZM36.1412 481.514H38.3647V483.502H36.1412V481.514ZM38.3647 485.49H36.1412V487.478H38.3647V485.49Z" fill="#C4C4C4"/>
</svg>
